<?xml version="1.0" encoding="UTF-8"?>
<svg xmlns="http://www.w3.org/2000/svg" xmlns:xlink="http://www.w3.org/1999/xlink" width="120px" height="120px" viewBox="0 0 120 120" version="1.1">
<g id="surface1">
<path style=" stroke:none;fill-rule:nonzero;fill:rgb(0%,0%,0%);fill-opacity:1;" d="M 27.957031 78.664062 C 28.023438 74.007812 28.761719 69.492188 29.582031 64.992188 C 29.980469 62.828125 30.308594 60.660156 30.261719 58.4375 C 30.207031 55.640625 30.6875 52.878906 31.046875 50.117188 C 31.09375 49.761719 31.128906 49.503906 30.730469 49.355469 C 29.539062 48.90625 28.796875 48.074219 28.796875 46.773438 C 28.789062 45.238281 29.480469 44.03125 30.8125 43.246094 C 31.785156 42.671875 32.804688 42.539062 33.777344 43.246094 C 34.21875 43.566406 34.46875 43.359375 34.777344 43.070312 C 36.347656 41.605469 38.042969 40.332031 40.085938 39.585938 C 40.734375 39.351562 41.414062 39.253906 42.289062 39.050781 C 40.925781 38.535156 40.179688 37.453125 38.953125 36.976562 C 37.589844 36.441406 36.796875 35.234375 36.328125 33.867188 C 35.949219 32.757812 36.441406 31.574219 37.691406 31.03125 C 39.101562 30.417969 39.695312 29.226562 40.238281 27.96875 C 40.785156 26.695312 40.800781 25.296875 41.085938 23.957031 C 41.832031 20.433594 43.855469 17.851562 46.984375 16.121094 C 47.507812 15.835938 47.78125 15.558594 47.78125 14.902344 C 47.773438 13.316406 48.6875 12.46875 50.265625 12.453125 C 51.460938 12.445312 52.566406 12.648438 53.328125 13.695312 C 53.480469 13.902344 53.691406 13.921875 53.921875 13.914062 C 59.359375 13.753906 63.839844 15.984375 67.625 19.660156 C 70.964844 22.898438 74.40625 26.039062 77.40625 29.625 C 80.960938 33.871094 84.578125 38.0625 87.265625 42.953125 C 89.992188 47.898438 91.753906 53.15625 92.703125 58.707031 C 93.390625 62.671875 93.777344 66.664062 93.777344 70.683594 C 93.78125 77.25 92.503906 83.484375 88.613281 88.960938 C 87.613281 90.367188 86.558594 91.75 85.1875 92.773438 C 84.148438 93.554688 83.804688 94.484375 83.710938 95.6875 C 83.578125 97.316406 83.183594 98.910156 82.796875 100.503906 C 82.367188 102.261719 81.238281 103.085938 79.539062 103.292969 C 79.148438 103.339844 78.757812 103.359375 78.65625 103.882812 C 77.945312 107.410156 75.507812 108.917969 72.183594 109.261719 C 69.847656 109.5 67.539062 109.296875 65.320312 108.421875 C 64.949219 108.273438 64.613281 108.078125 64.3125 107.820312 C 63.570312 107.195312 63.429688 106.457031 63.910156 105.59375 C 64.0625 105.3125 64.273438 105.085938 63.898438 104.785156 C 61.308594 102.703125 59.386719 100.109375 58.03125 97.082031 C 57.984375 96.976562 57.910156 96.882812 57.78125 96.675781 C 57.070312 98.414062 55.929688 99.683594 54.394531 100.589844 C 54.125 100.742188 54.167969 100.992188 54.164062 101.234375 C 54.136719 102.492188 53.484375 103.023438 52.226562 102.890625 C 51.148438 102.777344 50.324219 102.171875 49.3125 101.457031 C 49.5 102.558594 48.78125 103.5 49.566406 104.488281 C 50.058594 105.117188 49.703125 105.945312 48.882812 106.46875 C 48.144531 106.9375 47.320312 107.152344 46.472656 107.304688 C 44.9375 107.578125 43.402344 107.648438 41.867188 107.371094 C 39.210938 106.894531 37.457031 105.375 37.109375 102.660156 C 36.777344 100.085938 35.53125 98.078125 34.101562 96.078125 C 31.695312 92.726562 29.710938 89.179688 28.71875 85.132812 C 28.210938 83.023438 28.046875 80.882812 27.957031 78.664062 M 59.007812 15.78125 C 57.546875 15.335938 56.058594 15.085938 54.53125 15.042969 C 54.003906 15.023438 53.71875 15.140625 53.695312 15.753906 C 53.667969 16.386719 53.46875 17.007812 53.1875 17.582031 C 53.046875 17.875 52.804688 18.054688 52.472656 17.914062 C 52.15625 17.789062 52.046875 17.527344 52.144531 17.195312 C 52.246094 16.84375 52.355469 16.492188 52.453125 16.132812 C 53.042969 14.054688 51.652344 13.507812 50 13.632812 C 49.351562 13.683594 49.011719 14.089844 48.988281 14.765625 C 48.964844 15.4375 49.046875 16.082031 49.257812 16.71875 C 49.34375 17.007812 49.273438 17.25 49.007812 17.421875 C 48.757812 17.578125 48.492188 17.554688 48.347656 17.335938 C 48 16.820312 47.648438 17.054688 47.289062 17.273438 C 44.324219 19.074219 42.507812 21.636719 42.085938 25.121094 C 41.820312 27.296875 41.273438 29.359375 39.773438 31.046875 C 39.542969 31.304688 39.5 31.5625 39.566406 31.914062 C 39.863281 33.398438 40.039062 34.917969 40.753906 36.285156 C 41.328125 37.402344 42.097656 37.859375 43.164062 37.421875 C 43.703125 37.199219 44.140625 36.871094 44.476562 36.398438 C 44.699219 36.070312 44.9375 35.664062 45.402344 35.96875 C 45.875 36.277344 45.652344 36.679688 45.425781 37.058594 C 45.0625 37.671875 44.480469 38.054688 43.800781 38.484375 C 44.203125 38.605469 44.484375 38.691406 44.761719 38.78125 C 45.984375 39.167969 47.265625 39.21875 48.53125 39.320312 C 50 39.441406 51.257812 40.003906 52.273438 41.042969 C 52.503906 40.871094 52.4375 40.683594 52.460938 40.523438 C 52.777344 38.300781 53.304688 36.148438 54.40625 34.171875 C 54.609375 33.816406 54.871094 33.464844 55.335938 33.722656 C 55.808594 33.984375 55.621094 34.367188 55.421875 34.738281 C 54.851562 35.773438 54.46875 36.882812 54.15625 38.019531 C 53.488281 40.445312 53.488281 42.960938 53.132812 45.425781 C 52.976562 46.492188 52.8125 47.554688 52.570312 48.605469 C 52 51.054688 50.539062 52.832031 48.488281 54.226562 C 45.957031 55.945312 43.507812 57.796875 40.96875 59.5 C 38.265625 61.308594 39.429688 64.9375 41.546875 65.914062 C 42.417969 66.324219 43.308594 66.472656 44.25 66.472656 C 48.957031 66.453125 53.257812 65.023438 57.308594 62.738281 C 60.894531 60.71875 63.933594 58.035156 66.601562 54.921875 C 66.882812 54.59375 67.203125 54.242188 67.640625 54.640625 C 68.042969 55.007812 67.742188 55.363281 67.484375 55.664062 C 66.417969 56.910156 65.320312 58.132812 64.074219 59.207031 C 63.085938 60.066406 62.082031 60.910156 61.003906 61.824219 C 61.34375 61.847656 61.585938 61.859375 61.820312 61.882812 C 63.75 62.046875 65.210938 63.382812 65.324219 65.136719 C 65.429688 66.746094 64.832031 68.09375 63.71875 69.25 C 60.9375 72.117188 57.511719 73.734375 53.628906 74.433594 C 52.832031 74.578125 52.5625 74.921875 52.550781 75.671875 C 52.539062 77.1875 52.644531 78.703125 52.847656 80.207031 C 53.40625 84.402344 54.710938 88.3125 57.335938 91.703125 C 57.660156 92.117188 57.871094 92.5625 57.980469 93.074219 C 58.246094 94.351562 58.664062 95.578125 59.207031 96.757812 C 60.605469 99.800781 62.574219 102.382812 65.28125 104.375 C 65.738281 104.714844 65.996094 105.046875 65.488281 105.566406 C 64.59375 106.5 64.695312 106.90625 65.925781 107.367188 C 68.015625 108.15625 70.199219 108.265625 72.375 107.996094 C 75.613281 107.582031 76.890625 106.316406 77.605469 103.125 C 78.0625 101.113281 78.28125 99.070312 78.335938 97.015625 C 78.355469 96.265625 78.617188 95.820312 79.304688 95.464844 C 83.113281 93.46875 86.203125 90.671875 88.480469 86.996094 C 91.316406 82.429688 92.414062 77.375 92.585938 72.089844 C 92.714844 68.117188 92.316406 64.171875 91.757812 60.238281 C 90.492188 51.320312 87.007812 43.375 81.425781 36.3125 C 77.359375 31.175781 72.941406 26.371094 68.230469 21.8125 C 65.546875 19.21875 62.714844 16.96875 59.007812 15.78125 M 50.671875 47.511719 C 50.945312 47.253906 51.277344 47.488281 51.566406 47.445312 C 51.707031 46.960938 51.933594 46.46875 51.710938 46.054688 C 51.210938 45.121094 50.359375 44.445312 49.824219 43.425781 C 49.484375 43.984375 49.429688 44.410156 49.449219 44.855469 C 49.46875 45.242188 49.355469 45.554688 48.929688 45.609375 C 48.539062 45.65625 48.367188 45.378906 48.238281 45.066406 C 47.867188 44.117188 48.101562 43.476562 49.109375 42.679688 C 49.007812 42.308594 48.710938 42.078125 48.4375 41.84375 C 46.460938 40.191406 44.109375 40.058594 41.746094 40.410156 C 39.203125 40.789062 37.246094 42.359375 35.4375 44.089844 C 35.21875 44.296875 35.207031 44.492188 35.40625 44.726562 C 35.539062 44.898438 35.65625 45.089844 35.769531 45.277344 C 35.980469 45.632812 36.03125 45.988281 35.632812 46.238281 C 35.234375 46.484375 34.996094 46.21875 34.796875 45.914062 C 34.4375 45.375 34.023438 44.902344 33.515625 44.503906 C 32.632812 43.8125 31.835938 43.828125 31.003906 44.558594 C 30.179688 45.285156 29.78125 46.21875 30.101562 47.265625 C 30.40625 48.253906 31.378906 48.375 32.265625 48.496094 C 32.699219 48.558594 33.144531 48.554688 33.578125 48.625 C 33.871094 48.671875 34.046875 48.894531 34.03125 49.203125 C 34.015625 49.523438 33.8125 49.6875 33.515625 49.730469 C 33.347656 49.757812 33.167969 49.773438 33.003906 49.75 C 32.476562 49.683594 32.273438 49.90625 32.207031 50.433594 C 31.921875 52.640625 31.609375 54.84375 31.507812 57.070312 C 31.453125 58.316406 31.507812 59.574219 31.410156 60.816406 C 31.1875 63.546875 30.523438 66.21875 30.113281 68.929688 C 29.5 72.96875 28.917969 77.011719 29.289062 81.125 C 29.585938 84.46875 30.488281 87.609375 32.03125 90.578125 C 33.1875 92.804688 34.667969 94.820312 36.085938 96.875 C 37.164062 98.445312 37.976562 100.082031 38.183594 102.050781 C 38.441406 104.480469 39.695312 105.707031 42.097656 106.179688 C 43.328125 106.421875 44.585938 106.355469 45.828125 106.199219 C 46.609375 106.101562 47.382812 105.960938 48.074219 105.566406 C 48.453125 105.351562 48.6875 105.066406 48.230469 104.734375 C 47.75 104.382812 47.8125 103.949219 47.925781 103.480469 C 48.375 101.570312 48.238281 99.695312 47.578125 97.847656 C 47.039062 96.34375 46.667969 94.800781 46.496094 93.210938 C 46.449219 92.765625 46.492188 92.292969 47.011719 92.226562 C 47.558594 92.15625 47.65625 92.617188 47.695312 93.066406 C 47.773438 94.039062 47.984375 94.996094 48.234375 95.945312 C 48.351562 96.378906 48.566406 96.496094 48.984375 96.351562 C 51.910156 95.347656 53.878906 93.453125 54.601562 90.378906 C 54.683594 90.019531 54.625 89.714844 54.453125 89.394531 C 53.90625 88.382812 53.441406 87.328125 53.054688 86.246094 C 51.8125 82.789062 51.277344 79.226562 51.425781 75.566406 C 51.453125 74.90625 51.28125 74.761719 50.597656 74.820312 C 48.394531 75.023438 46.191406 74.867188 44.015625 74.460938 C 43.59375 74.382812 43.222656 74.207031 43.339844 73.695312 C 43.449219 73.226562 43.824219 73.242188 44.222656 73.308594 C 46.800781 73.734375 49.386719 73.796875 51.984375 73.5 C 55.515625 73.097656 58.742188 71.925781 61.527344 69.664062 C 62.554688 68.835938 63.578125 67.988281 63.984375 66.632812 C 64.503906 64.890625 63.890625 63.496094 62.28125 63.191406 C 60.769531 62.902344 59.210938 63.09375 57.859375 63.804688 C 55.398438 65.101562 52.882812 66.238281 50.175781 66.886719 C 47.71875 67.472656 45.234375 68.011719 42.699219 67.523438 C 40.363281 67.078125 38.820312 65.695312 38.296875 63.335938 C 37.824219 61.203125 38.703125 59.632812 40.445312 58.433594 C 42.640625 56.921875 44.820312 55.378906 47 53.835938 C 47.347656 53.59375 47.761719 53.398438 47.96875 53.007812 C 47.765625 52.550781 47.429688 52.53125 47.03125 52.585938 C 46.542969 52.640625 46.050781 52.621094 45.613281 52.339844 C 45.394531 52.195312 45.273438 51.976562 45.367188 51.707031 C 45.464844 51.421875 45.683594 51.28125 45.988281 51.320312 C 46.210938 51.34375 46.425781 51.414062 46.640625 51.425781 C 47.539062 51.464844 48.355469 50.886719 48.46875 50.113281 C 48.171875 49.972656 47.851562 50.058594 47.539062 50.046875 C 47.101562 50.035156 46.664062 50.066406 46.234375 49.925781 C 45.285156 49.621094 45 48.980469 45.496094 48.117188 C 46.015625 47.21875 46.808594 46.597656 47.746094 46.1875 C 48.679688 45.773438 49.4375 46.226562 49.621094 47.25 C 49.707031 47.746094 49.644531 48.21875 49.507812 48.699219 C 49.445312 48.9375 49.25 49.199219 49.574219 49.46875 C 50.203125 49.296875 50.546875 48.898438 50.511719 48.21875 C 50.503906 47.996094 50.441406 47.785156 50.671875 47.511719 M 49.203125 99.371094 C 49.859375 100.65625 50.972656 101.347656 52.316406 101.695312 C 52.808594 101.820312 53.105469 101.546875 52.882812 101.023438 C 52.574219 100.292969 52.914062 99.980469 53.53125 99.675781 C 55.351562 98.773438 56.507812 97.296875 56.933594 95.324219 C 57.261719 93.804688 56.6875 92.539062 55.566406 91.410156 C 54.636719 94.125 52.855469 95.933594 50.359375 97.082031 C 49.894531 97.292969 49.25 97.296875 48.984375 97.710938 C 48.683594 98.179688 49.1875 98.722656 49.203125 99.371094 M 82.328125 96.984375 C 82.421875 96.34375 82.507812 95.703125 82.621094 94.925781 C 81.695312 95.464844 80.910156 95.945312 80.105469 96.378906 C 79.742188 96.578125 79.578125 96.820312 79.554688 97.234375 C 79.496094 98.230469 79.386719 99.226562 79.304688 100.222656 C 79.25 100.84375 79.054688 101.445312 79.128906 102.078125 C 80.789062 101.96875 81.203125 101.632812 81.652344 100.109375 C 81.941406 99.125 82.148438 98.125 82.328125 96.984375 M 50.0625 40.882812 C 49.679688 40.730469 49.292969 40.546875 48.722656 40.667969 C 50.234375 41.597656 50.859375 43.167969 51.957031 44.390625 C 52.023438 44.246094 52.058594 44.183594 52.074219 44.117188 C 52.355469 42.898438 51.65625 41.738281 50.0625 40.882812 M 38.148438 32.875 C 37.707031 32.507812 37.402344 32.644531 37.148438 33.148438 C 37.578125 33.449219 37.882812 33.34375 38.148438 32.875 M 47.835938 47.292969 C 47.757812 47.410156 47.640625 47.523438 47.816406 47.691406 C 48.179688 47.632812 48.453125 47.464844 48.582031 47.042969 C 48.277344 46.929688 48.089844 47.078125 47.835938 47.292969 Z M 47.835938 47.292969 "/>
<path style=" stroke:none;fill-rule:nonzero;fill:rgb(0%,0%,0%);fill-opacity:1;" d="M 44.085938 26.910156 C 44.339844 26.515625 44.652344 26.300781 45.054688 26.226562 C 45.46875 26.148438 45.839844 26.234375 46.09375 26.597656 C 46.335938 26.945312 46.128906 27.253906 45.933594 27.53125 C 45.523438 28.109375 45.113281 28.683594 44.6875 29.246094 C 44.523438 29.464844 44.3125 29.652344 44.007812 29.546875 C 43.683594 29.4375 43.566406 29.171875 43.578125 28.851562 C 43.617188 28.191406 43.714844 27.542969 44.085938 26.910156 Z M 44.085938 26.910156 "/>
<path style=" stroke:none;fill-rule:nonzero;fill:rgb(0%,0%,0%);fill-opacity:1;" d="M 42.335938 49.292969 C 42.605469 49.578125 42.800781 49.835938 42.570312 50.175781 C 42.335938 50.523438 42.007812 50.507812 41.664062 50.351562 C 41.203125 50.148438 40.753906 50.230469 40.308594 50.394531 C 39.941406 50.527344 39.617188 50.480469 39.414062 50.128906 C 39.210938 49.785156 39.328125 49.472656 39.5625 49.179688 C 40.179688 48.414062 41.269531 48.441406 42.335938 49.292969 Z M 42.335938 49.292969 "/>
</g>
</svg>
